<svg width="20" height="20" viewBox="0 0 20 20" fill="none" xmlns="http://www.w3.org/2000/svg">
<path d="M20 10C20 12.6522 18.9464 15.1957 17.0711 17.0711C15.1957 18.9464 12.6522 20 10 20C7.34784 20 4.8043 18.9464 2.92893 17.0711C1.05357 15.1957 0 12.6522 0 10C0 7.34784 1.05357 4.8043 2.92893 2.92893C4.8043 1.05357 7.34784 0 10 0C12.6522 0 15.1957 1.05357 17.0711 2.92893C18.9464 4.8043 20 7.34784 20 10ZM10.625 5.625C10.625 5.45924 10.5592 5.30027 10.4419 5.18306C10.3247 5.06585 10.1658 5 10 5C9.83424 5 9.67527 5.06585 9.55806 5.18306C9.44085 5.30027 9.375 5.45924 9.375 5.625V12.8663L6.6925 10.1825C6.57514 10.0651 6.41597 9.99921 6.25 9.99921C6.08403 9.99921 5.92486 10.0651 5.8075 10.1825C5.69014 10.2999 5.62421 10.459 5.62421 10.625C5.62421 10.791 5.69014 10.9501 5.8075 11.0675L9.5575 14.8175C9.61556 14.8757 9.68453 14.9219 9.76046 14.9534C9.83639 14.9849 9.91779 15.0011 10 15.0011C10.0822 15.0011 10.1636 14.9849 10.2395 14.9534C10.3155 14.9219 10.3844 14.8757 10.4425 14.8175L14.1925 11.0675C14.3099 10.9501 14.3758 10.791 14.3758 10.625C14.3758 10.459 14.3099 10.2999 14.1925 10.1825C14.0751 10.0651 13.916 9.99921 13.75 9.99921C13.584 9.99921 13.4249 10.0651 13.3075 10.1825L10.625 12.8663V5.625Z" fill="black"/>
</svg>
