<svg width="25" height="27" viewBox="0 0 25 27" fill="none" xmlns="http://www.w3.org/2000/svg">
<path d="M11.4167 0.65625C12.4173 0.656109 13.3818 1.03003 14.1208 1.70459C14.8599 2.37915 15.3201 3.30562 15.411 4.30208H21.625C21.9021 4.30217 22.1689 4.40744 22.3714 4.59663C22.5739 4.78581 22.697 5.04481 22.7159 5.32128C22.7348 5.59776 22.648 5.87109 22.4731 6.08606C22.2982 6.30103 22.0483 6.4416 21.7738 6.47937L21.625 6.48958H20.7748L20.1113 12.2442C18.4672 11.7904 16.7213 11.8726 15.127 12.4787C13.5328 13.0848 12.1733 14.1833 11.246 15.6147C10.3186 17.0461 9.87162 18.7358 9.96998 20.4385C10.0683 22.1412 10.7069 23.7683 11.7929 25.0833H6.8025C6.08697 25.0834 5.39636 24.8205 4.86207 24.3446C4.32778 23.8686 3.98708 23.2129 3.90479 22.5021L2.05709 6.48958H1.20834C0.944031 6.48957 0.68867 6.39385 0.489479 6.22013C0.290287 6.04641 0.16074 5.80643 0.124794 5.54458L0.114586 5.39583C0.114597 5.13153 0.210315 4.87617 0.384038 4.67698C0.557761 4.47778 0.797737 4.34824 1.05959 4.31229L1.20834 4.30208H7.42229C7.51326 3.30562 7.97344 2.37915 8.71249 1.70459C9.45154 1.03003 10.4161 0.656109 11.4167 0.65625ZM11.4167 2.84375C10.5344 2.84375 9.79792 3.47083 9.63021 4.30208H13.2031C13.034 3.47083 12.299 2.84375 11.4167 2.84375ZM17.9792 26.5417C19.7197 26.5417 21.3888 25.8503 22.6196 24.6196C23.8503 23.3888 24.5417 21.7196 24.5417 19.9792C24.5417 18.2387 23.8503 16.5695 22.6196 15.3388C21.3888 14.1081 19.7197 13.4167 17.9792 13.4167C16.2387 13.4167 14.5695 14.1081 13.3388 15.3388C12.1081 16.5695 11.4167 18.2387 11.4167 19.9792C11.4167 21.7196 12.1081 23.3888 13.3388 24.6196C14.5695 25.8503 16.2387 26.5417 17.9792 26.5417ZM16.6725 17.2142L15.3644 18.5208H17.6146C18.6782 18.5208 19.6983 18.9434 20.4504 19.6955C21.2025 20.4476 21.625 21.4676 21.625 22.5312V22.8958C21.625 23.0892 21.5482 23.2747 21.4114 23.4114C21.2747 23.5482 21.0892 23.625 20.8958 23.625C20.7024 23.625 20.517 23.5482 20.3802 23.4114C20.2435 23.2747 20.1667 23.0892 20.1667 22.8958V22.5312C20.1667 21.8544 19.8978 21.2053 19.4192 20.7267C18.9406 20.248 18.2914 19.9792 17.6146 19.9792H15.3644L16.6725 21.2858C16.8094 21.4228 16.8863 21.6084 16.8863 21.8021C16.8863 21.9957 16.8094 22.1814 16.6725 22.3183C16.5356 22.4552 16.3499 22.5322 16.1563 22.5322C15.9626 22.5322 15.7769 22.4552 15.64 22.3183L13.085 19.7619C12.9492 19.6251 12.8733 19.44 12.8738 19.2472C12.8744 19.0545 12.9514 18.8698 13.0879 18.7337L15.64 16.1817C15.7769 16.0447 15.9626 15.9678 16.1563 15.9678C16.3499 15.9678 16.5356 16.0447 16.6725 16.1817C16.8094 16.3186 16.8863 16.5043 16.8863 16.6979C16.8863 16.8915 16.8094 17.0772 16.6725 17.2142Z" fill="black"/>
</svg>
