<svg width="18" height="24" viewBox="0 0 18 24" fill="none" xmlns="http://www.w3.org/2000/svg">
<path d="M16.7778 20.889H1.22222C0.927534 20.889 0.644919 21.006 0.436545 21.2144C0.228171 21.4228 0.111108 21.7054 0.111108 22.0001C0.111108 22.2947 0.228171 22.5774 0.436545 22.7857C0.644919 22.9941 0.927534 23.1112 1.22222 23.1112H16.7778C17.0725 23.1112 17.3551 22.9941 17.5635 22.7857C17.7718 22.5774 17.8889 22.2947 17.8889 22.0001C17.8889 21.7054 17.7718 21.4228 17.5635 21.2144C17.3551 21.006 17.0725 20.889 16.7778 20.889ZM1.22222 18.6667H1.32222L5.95555 18.2445C6.4631 18.1939 6.93781 17.9703 7.3 17.6112L17.3 7.61117C17.6881 7.20113 17.8979 6.65396 17.8833 6.08954C17.8687 5.52513 17.631 4.98951 17.2222 4.60006L14.1778 1.55561C13.7804 1.18239 13.2598 0.968236 12.7148 0.953895C12.1699 0.939554 11.6386 1.12603 11.2222 1.47784L1.22222 11.4778C0.86307 11.84 0.639446 12.3147 0.588885 12.8223L0.111108 17.4556C0.0961398 17.6184 0.117257 17.7824 0.172953 17.936C0.22865 18.0897 0.317554 18.2292 0.43333 18.3445C0.537152 18.4475 0.660281 18.529 0.795656 18.5843C0.931031 18.6395 1.07599 18.6676 1.22222 18.6667ZM12.6333 3.11117L15.6667 6.1445L13.4444 8.31117L10.4667 5.33339L12.6333 3.11117Z" fill="black"/>
</svg>
